PathFileType	4	(X/Y/Z)	OpenSim_Sub08_EMGBaseline_Gyro.trc
DataRate	CameraRate	NumFrames	NumMarkers	Units	OrigDataRate	OrigDataStartFrame	OrigNumFrames
100	100	41	8	m	100	4159	6654
Frame#	Time	torso_imu_offset_imu	pelvis_imu_offset_imu	tibia_r_imu_offset_imu	femur_r_imu_offset_imu	tibia_l_imu_offset_imu	femur_l_imu_offset_imu	toes_r_imu_offset_imu	toes_l_imu_offset_imu
				X1	Y1	Z1	X2	Y2	Z2	X3	Y3	Z3	X4	Y4	Z4	X5	Y5	Z5	X6	Y6	Z6	X7	Y7	Z7	X8		Y8	Z8	

4159	41.58000000	-0.40715968	-0.24555896	-0.05595239	0.31297581	-0.05593227	0.26840164	0.33658822	0.91591355	3.96772415	1.01779852	0.11232542	0.55524352	0.47636239	-0.19983150	0.80586769	0.30989397	-0.27743007	0.33434941	-1.60564211	3.11767649	3.11408520	0.11858999	-0.16068103	0.12627867
4160	41.59000000	-0.36393843	-0.27574269	-0.05162507	0.38961101	-0.02765942	0.21579531	0.04385769	0.94812715	4.40915511	0.70326566	0.12576708	0.46457357	0.43975759	-0.19842408	0.81346546	0.15473957	-0.27520472	0.34299781	-1.87911616	3.24083303	2.70352083	0.10111961	-0.11869588	0.13648606
4161	41.60000000	-0.31279040	-0.29336080	-0.04674756	0.45465022	-0.00942861	0.17940698	-0.27892360	0.83372126	4.64802195	0.49714015	0.14889894	0.39273387	0.45427715	-0.20619940	0.85114098	0.08167514	-0.26424363	0.35131817	-1.84261440	3.38521913	2.31561706	0.13892089	-0.10951203	0.12683943
4162	41.61000000	-0.25547294	-0.30185335	-0.04129220	0.49187008	0.00047218	0.16244410	-0.49757247	0.78663403	4.72068759	0.38018049	0.18572461	0.32605251	0.46886168	-0.20078061	0.85687741	0.08859124	-0.24870011	0.35526928	-1.63206845	3.53341908	1.94635421	0.11642019	-0.07898699	0.14320436
4163	41.62000000	-0.20223778	-0.29867250	-0.03043562	0.49929055	-0.00565319	0.15223555	-0.29012674	0.73011177	4.58951176	0.31274066	0.24697577	0.28087848	0.46506855	-0.17227712	0.83915621	0.14649094	-0.23154049	0.35182565	-1.68614646	3.56776702	1.67556097	0.09959093	-0.08315033	0.16210917
4164	41.63000000	-0.14738177	-0.29364671	-0.03333873	0.48865253	-0.03212880	0.14608537	0.19351576	0.61183885	4.36673189	0.24094652	0.31917581	0.24606382	0.42877095	-0.15679936	0.82488540	0.22571334	-0.22065253	0.38137283	-1.77033494	3.63954825	1.52122005	0.08497254	-0.07880891	0.16926367
4165	41.64000000	-0.08906400	-0.28400663	-0.03494396	0.46177506	-0.05188612	0.13986171	0.80708577	0.54752042	4.20265372	0.12558660	0.35211436	0.20105723	0.37757955	-0.14534214	0.83911497	0.30591701	-0.20989332	0.42321997	-1.60999270	3.74143381	1.50726662	0.07986618	-0.06938376	0.16377128
4166	41.65000000	-0.02760568	-0.26968288	-0.02885493	0.42147459	-0.06071403	0.11578779	1.40382524	0.65666083	4.13052629	-0.03909916	0.34219140	0.14236070	0.36291913	-0.12316904	0.85661333	0.35855339	-0.19684163	0.46564558	-1.41069573	3.73601412	1.68048004	0.08253143	-0.05617990	0.13456821
4167	41.66000000	0.02301560	-0.25186063	-0.02175373	0.36806334	-0.05399026	0.08462259	1.81232727	0.88148028	4.08571906	-0.23643890	0.32363428	0.06637693	0.37393733	-0.08843173	0.83552994	0.35949963	-0.18030057	0.50687487	-1.20343647	3.65375641	2.06296063	0.10553351	-0.11133421	0.09554076
4168	41.67000000	0.07869319	-0.23937421	-0.01448088	0.31718621	-0.03798767	0.04621482	1.94495687	1.01106741	3.95774536	-0.45072095	0.31487212	-0.00920205	0.39659386	-0.08537214	0.80540352	0.32574998	-0.17119464	0.54190401	-1.03074852	3.46383420	2.60235684	0.08488584	-0.11676204	0.09668039
4169	41.68000000	0.13479338	-0.22564260	-0.00566773	0.27664920	-0.02942787	0.00799845	1.83455492	0.98252591	3.80199181	-0.65858623	0.31569023	-0.06945164	0.41679614	-0.07400978	0.81745944	0.26150666	-0.17232314	0.59014573	-0.81724145	3.19292883	3.15327155	0.04845725	-0.10099581	0.09131897
4170	41.69000000	0.18079512	-0.20128186	-0.00356029	0.24624020	-0.03544639	-0.02302000	1.62194566	0.95576656	3.68985985	-0.86538481	0.30955280	-0.10209382	0.41138449	-0.03704199	0.83861997	0.21425995	-0.18769627	0.63951547	-0.53552419	2.93765207	3.60460666	0.06270328	-0.07361822	0.09554496
4171	41.70000000	0.21307422	-0.17500706	-0.00968053	0.22186938	-0.04701979	-0.04363876	1.49427507	1.00429184	3.59429910	-1.04584784	0.28420318	-0.11624940	0.36556652	-0.01967984	0.81749179	0.18503484	-0.20869605	0.68065551	-0.22950414	2.74672855	3.91434181	0.02046296	-0.10643745	0.11128140
4172	41.71000000	0.24516514	-0.16290024	-0.01039090	0.21389873	-0.05365883	-0.05444907	1.50882588	1.05046719	3.46234834	-1.14651540	0.27989303	-0.12816427	0.30491258	-0.01347505	0.77131864	0.15276758	-0.22207555	0.72414592	-0.01172277	2.57415703	4.09635499	-0.01196637	-0.10514806	0.15480249
4173	41.72000000	0.26982065	-0.14085958	-0.01165010	0.21611805	-0.04978965	-0.04786669	1.58404230	1.03741297	3.30710645	-1.13588249	0.30839571	-0.15569363	0.24393756	0.01891647	0.74767263	0.14654043	-0.23207993	0.75305671	0.07142774	2.38368720	4.16310690	-0.02768948	-0.11030275	0.18389006
4174	41.73000000	0.27652779	-0.11454364	-0.01925637	0.21091757	-0.03783079	-0.02905904	1.68049688	1.00496907	3.15759243	-0.99936179	0.34755242	-0.18865423	0.16176958	0.02522584	0.77828357	0.14937051	-0.23875357	0.77375546	0.10571020	2.20452956	4.14412060	-0.01755587	-0.11997206	0.19060489
4175	41.74000000	0.28283920	-0.08243279	-0.02323470	0.19716804	-0.01459843	-0.00153073	1.79877933	0.97745708	2.98798391	-0.78185117	0.37361622	-0.22507038	0.08165033	0.00129971	0.78998277	0.14851096	-0.23467886	0.81411680	0.17773717	2.03013725	4.06395155	0.03691199	-0.13503558	0.24058911
4176	41.75000000	0.28295425	-0.05701225	-0.02879606	0.17451675	0.02941087	0.03340131	1.96550852	0.97110382	2.75835723	-0.55696389	0.36263300	-0.26801413	-0.00409597	-0.00921436	0.75134706	0.13759170	-0.22641980	0.82403539	0.12278954	1.83398835	3.93440005	-0.08898583	-0.18534600	0.34869982
4177	41.76000000	0.27872871	-0.02343484	-0.04269754	0.14841690	0.08174794	0.06584924	1.98311823	0.95771436	2.44746717	-0.38121366	0.34448873	-0.32031277	-0.07401842	-0.01891266	0.72674485	0.10221899	-0.21652029	0.82130790	-0.05509980	1.72263684	3.64458070	-0.19123428	-0.23298415	0.35369555
4178	41.77000000	0.26625450	0.01338058	-0.05202267	0.14750505	0.13287050	0.09154712	1.57631323	0.86370714	2.12669314	-0.25913390	0.34470971	-0.38534566	-0.03856558	0.00329517	0.79557914	0.06745982	-0.19307033	0.81398685	0.30106223	1.65099448	3.10274794	0.00532669	-0.23203634	0.27210636
4179	41.78000000	0.25530377	0.04714255	-0.04356893	0.17263094	0.19433398	0.11774888	1.30899984	0.72056629	1.78877068	-0.17289955	0.33020018	-0.43157508	0.02218405	0.01664817	0.89234640	0.07153969	-0.15633396	0.77962072	0.87867717	1.40009141	2.45241126	-0.06196742	-0.25444189	0.22419052
4180	41.79000000	0.25442526	0.07133593	-0.04283254	0.21241686	0.23563835	0.14579849	1.51449039	0.54161048	1.43105316	-0.02046659	0.27728356	-0.45192710	0.06888971	0.01656605	0.93722822	0.08672458	-0.11432075	0.71944680	0.91833595	1.01506628	1.90014233	-0.01545178	-0.33697335	0.14329722
4181	41.80000000	0.24791789	0.08417362	-0.05365556	0.25460992	0.23413675	0.17543211	1.54780032	0.33779101	1.06526764	0.26538479	0.23222299	-0.44771916	0.08872100	0.03531543	0.97322624	0.16220628	-0.07027871	0.66654767	0.38459279	0.62880380	1.50565582	0.08688488	-0.38842354	0.08202962
4182	41.81000000	0.23569828	0.09541997	-0.07075748	0.30157116	0.19650856	0.21483622	1.40057447	0.14586996	0.59392591	0.61139947	0.19011087	-0.36919849	0.07591529	0.03201188	1.04723936	0.26741747	-0.02113313	0.61843310	-0.13123113	0.23998640	1.20421339	0.08763345	-0.43802110	0.07620598
4183	41.82000000	0.23537806	0.09464957	-0.07573756	0.35500815	0.13322125	0.25991721	1.19558942	-0.02386837	0.07303991	0.88560372	0.10188076	-0.20409104	0.04964329	0.03183115	1.12128737	0.36517992	0.01920667	0.57580216	-0.04325181	-0.12205490	0.93114717	0.13342410	-0.49303701	0.07865450
4184	41.83000000	0.23184555	0.09002566	-0.07390406	0.40086505	0.06759737	0.29984067	1.00608076	-0.14324404	-0.37946792	1.04926243	-0.05272720	-0.01620329	0.05850068	0.04944186	1.16754870	0.44855472	0.05313415	0.54639771	0.27543182	-0.45064835	0.69343605	0.15161392	-0.58513415	0.08499960
4185	41.84000000	0.22995911	0.08122379	-0.08143751	0.44562956	0.00732752	0.34024696	0.89577804	-0.25059205	-0.75297263	1.18956714	-0.24888715	0.09565636	0.13263307	0.06546894	1.20896974	0.51836905	0.08789750	0.52039783	0.65928521	-0.73176051	0.43645169	0.17962436	-0.66043248	0.11428790
4186	41.85000000	0.23434308	0.07885497	-0.09132692	0.48581942	-0.04938111	0.38250481	0.79799463	-0.38266007	-1.09486110	1.33715201	-0.43934052	0.10783428	0.22625481	0.08575527	1.27305077	0.59400439	0.13247800	0.49696912	0.76031018	-1.02977909	0.24464614	0.19866408	-0.73711975	0.11365280
4187	41.86000000	0.23979834	0.09036390	-0.09613876	0.49919728	-0.09707732	0.42478202	0.72862096	-0.53677579	-1.42160955	1.41287833	-0.59922497	0.05423375	0.34474976	0.09825479	1.37252593	0.66983729	0.17368155	0.47013922	0.87659990	-1.01747355	-0.20025000	0.27781381	-0.84540048	0.11366896
4188	41.87000000	0.25745348	0.11260488	-0.10719365	0.49786676	-0.11823947	0.46349817	0.70052650	-0.78345778	-1.69316618	1.38258031	-0.73911406	-0.05656411	0.44967797	0.10615056	1.45844039	0.73993588	0.21744407	0.45549264	-1.19556900	-1.78383672	-0.48165456	0.31755495	-0.97549270	0.13707648
4189	41.88000000	0.27160365	0.12964931	-0.11246840	0.50030199	-0.09586629	0.50594101	0.48095676	-1.13033231	-1.73184992	1.29790631	-0.84585427	-0.22130330	0.53469594	0.11247624	1.50187714	0.81788007	0.25723027	0.46059071	-1.44716805	-2.44211577	-0.73075352	0.32006226	-1.16601158	0.17409535
4190	41.89000000	0.28434849	0.13553189	-0.09788477	0.46414852	-0.04885971	0.55169900	-0.55908745	-1.13662563	-1.14605246	1.18823491	-0.88033474	-0.39323052	0.56999491	0.13773781	1.55149117	0.87587215	0.27465096	0.45891440	0.98423156	-2.12087395	-1.25981599	0.41572102	-1.36515121	0.21095583
4191	41.90000000	0.29936004	0.15233264	-0.09354053	0.32196587	-0.04422439	0.59215349	-1.74209281	-0.69995508	-0.06986365	1.11584617	-0.81192434	-0.57537473	0.54473324	0.14875741	1.63272136	0.90249828	0.29123562	0.44933358	-0.38652111	-3.18682558	-0.89467153	0.52338177	-1.60003326	0.30558172
4192	41.91000000	0.29718014	0.19804761	-0.09005807	0.05766346	-0.09324256	0.62031067	-1.14029248	-0.55354020	0.36119176	1.01586414	-0.64145832	-0.71857664	0.49371446	0.14117393	1.70262643	0.88999287	0.32359857	0.43908345	0.16818441	-3.27759753	-0.45314676	0.49672728	-1.85204446	0.43176306
4193	41.92000000	0.28031579	0.25908030	-0.07902766	-0.21993472	-0.11720729	0.63557288	0.22653660	-0.75086424	-0.34348345	0.82977968	-0.43457353	-0.72669371	0.46971886	0.14152165	1.74814463	0.79564886	0.37180119	0.43587160	0.79645635	-3.10260419	-0.16711222	0.42534461	-2.15113177	0.52031258
4194	41.93000000	0.22864801	0.30400145	-0.05965095	-0.43996828	-0.10639628	0.63774530	0.28857690	-0.92517993	-1.18202581	0.54572708	-0.28090165	-0.64771099	0.44978605	0.15721798	1.80432576	0.62357921	0.39961164	0.42030307	0.53703107	-3.49889360	-0.36969740	0.32957042	-2.49228667	0.54344537
4195	41.94000000	0.16026866	0.33406673	-0.05155460	-0.65794491	-0.15032637	0.63002474	0.11700463	-0.90035736	-1.39865859	0.17040249	-0.05223340	-0.58876148	0.44961089	0.18067161	1.89625690	0.40748041	0.39789676	0.37419669	-0.08493692	-3.40492995	-0.51603114	0.14344282	-2.85627202	0.52570458
4196	41.95000000	0.09353646	0.39045259	-0.06661674	-0.89914685	-0.27990232	0.60565698	1.15276982	-0.60444359	-1.33632054	-0.21521693	0.23223473	-0.50291551	0.43856491	0.17497284	2.01797666	0.18988334	0.39991207	0.28603337	-0.74048244	-3.00555720	-0.42187007	-0.03593296	-3.22629702	0.47327304
4197	41.96000000	0.02659986	0.45518832	-0.09444225	-1.07693545	-0.40370799	0.57484643	2.51131784	-0.47278049	-1.38770259	-0.48270891	0.21814175	-0.33133758	0.39919680	0.14970645	2.13305129	-0.01870115	0.43231709	0.16575021	-0.75721779	-2.52008156	-0.29234145	-0.28757810	-3.59521837	0.36533403
4198	41.97000000	-0.03119715	0.48547556	-0.12224949	-1.10640394	-0.46119947	0.53876186	2.79256048	-0.56893530	-1.45593989	-0.61956742	-0.14004771	-0.13208683	0.42520339	0.09831805	2.23405421	-0.25383150	0.47904962	0.01465689	-0.18261270	-2.06584901	-0.11073773	-0.54979898	-4.04775333	0.22913408
4199	41.98000000	-0.06482442	0.50015731	-0.15571478	-1.03274582	-0.48738564	0.47644606	2.00439683	-0.70597860	-1.40275681	-0.69067425	-0.50688908	-0.03155600	0.67486754	0.08849288	2.36383031	-0.48172283	0.51997261	-0.14688151	-0.13740879	-2.12767027	0.23583223	-0.52288977	-4.59491370	0.02739809
